<svg xmlns="http://www.w3.org/2000/svg" width="589" height="438.749" viewBox="0 0 589 438.749"><defs><clipPath id="a"><path fill="none" d="M0 0h440.118v438.749H0z"/></clipPath><clipPath id="b"><path fill="none" d="M341.059 283.004h67.511v67.222h-67.511z"/></clipPath><clipPath id="c"><path fill="none" d="m384.731 277.83-27.453 11.1a29.12 29.12 0 0 0-16.083 37.915c.28.694.618 1.347.945 2.008a30 30 0 0 0 1.059 3.169 29.157 29.157 0 0 0 37.917 16.078L408.57 337l-2.081-5.146.077-.031-5.136-12.7-27.453 11.1a15.44 15.44 0 0 1-18.949-6.291 15.44 15.44 0 0 1 9.387-17.137l15.908-6.433 11.614-4.5-2-5.178-3.007-7.766-2-5.176Z"/></clipPath><clipPath id="d"><path fill="none" d="M363.41 282.906h8.76v62.291h-8.76z"/></clipPath><clipPath id="f"><path fill="none" d="M356.043 286.894h6.267v57.05h-6.267z"/></clipPath><clipPath id="g"><path fill="none" d="M31.613 265.793h30.599v48.472H31.613z"/></clipPath><clipPath id="h"><path fill="none" d="M54.357 279.155h27.097v35.265H54.357z"/></clipPath><clipPath id="i"><path fill="none" d="M76.067 294.944h23.535v19.794H76.067z"/></clipPath><clipPath id="k"><path fill="none" d="M38.289 122.809h63.794v36.069H38.289z"/></clipPath><clipPath id="l"><path fill="none" d="M222.823 0h97.773v97.773h-97.773z"/></clipPath><clipPath id="m"><path fill="none" d="M110.898 80.715h72.217v87.204h-72.217z"/></clipPath><clipPath id="n"><path fill="none" d="M106.189 80.972h51.059v59.014h-51.059z"/></clipPath><clipPath id="o"><path fill="none" d="M199.13 282.47h75.213v131.166H199.13z"/></clipPath><clipPath id="p"><path fill="none" d="M205.89 99.419h10.406v8.414H205.89z"/></clipPath><clipPath id="q"><path fill="none" d="M231.18 108.471h9.798v7.501h-9.798z"/></clipPath><clipPath id="r"><path fill="none" d="m173.056 239.955-10.313 69.1 101.064-19.19-2.323 96.759 46.271.391s5.968-97.851 7.682-113.125-3.235-34.529-23.9-41.795c-13.32-4.685-56.293-.072-86.193 3.936l-.5-8.385Z"/></clipPath><filter id="s" width="68" height="68" x="0" y="90.137" filterUnits="userSpaceOnUse"><feOffset dy="3"/><feGaussianBlur result="u" stdDeviation="3"/><feFlood flood-opacity=".161"/><feComposite in2="u" operator="in"/><feComposite in="SourceGraphic"/></filter><filter id="u" width="68" height="68" x="0" y="274.137" filterUnits="userSpaceOnUse"><feOffset dy="3"/><feGaussianBlur result="w" stdDeviation="3"/><feFlood flood-opacity=".161"/><feComposite in2="w" operator="in"/><feComposite in="SourceGraphic"/></filter><filter id="v" width="68" height="68" x="521" y="274.137" filterUnits="userSpaceOnUse"><feOffset dy="3"/><feGaussianBlur result="y" stdDeviation="3"/><feFlood flood-opacity=".161"/><feComposite in2="y" operator="in"/><feComposite in="SourceGraphic"/></filter><filter id="w" width="68" height="68" x="521" y="90.137" filterUnits="userSpaceOnUse"><feOffset dy="3"/><feGaussianBlur result="aa" stdDeviation="3"/><feFlood flood-opacity=".161"/><feComposite in2="aa" operator="in"/><feComposite in="SourceGraphic"/></filter><path id="t" fill="#12263f" d="M1509.381 4869.903h8.838v-8.511a2.12 2.12 0 0 1 4.238 0v8.511h8.838a2.042 2.042 0 1 1 0 4.082h-8.833v8.511a2.12 2.12 0 0 1-4.238 0v-8.511h-8.843a2.042 2.042 0 1 1 0-4.082"/></defs><g transform="translate(-505.051 -4777.863)"><g clip-path="url(#a)" transform="translate(579.941 4777.863)"><g clip-path="url(#a)"><path fill="#b1ca93" d="M91.71 61.367a30.6 30.6 0 1 1-21.374-37.62 30.595 30.595 0 0 1 21.374 37.62"/><path fill="#fff" d="m52.371 68.085 6.57 1.809 4.531-16.453 4.584 1.259 2.006-5.374-5.073-1.4.864-3.137c.358-1.3.76-1.741 2.016-1.395l3.556.979L73 38.662l-4.55-1.253c-4.889-1.346-7.686.2-8.821 4.322l-1.21 4.392L55 45.182l-1.536 5.577 3.417.942Z"/><path fill="#fd625f" d="M360.959 348.708a29.113 29.113 0 0 1-1.678-54.6L386.735 283l5.136 12.7-27.455 11.1a15.427 15.427 0 1 0 11.565 28.6l27.454-11.1 5.136 12.7-27.455 11.1a29 29 0 0 1-20.157.605"/><g clip-path="url(#b)" opacity=".3"><path d="M360.959 348.708a29.113 29.113 0 0 1-1.678-54.6L386.735 283l5.136 12.7-27.455 11.1a15.427 15.427 0 1 0 11.565 28.6l27.454-11.1 5.136 12.7-27.455 11.1a29 29 0 0 1-20.157.605"/></g><path fill="#c1bfbf" d="m375.311 287.426 11.615-4.497 5.01 12.943-11.614 4.497zm16.429 41.607 5.083 12.791L408.57 337l-5.136-12.7Z"/><path fill="#fd625f" d="M358.954 343.531a29.112 29.112 0 0 1-1.677-54.6l27.453-11.1 5.136 12.7-27.455 11.1a15.427 15.427 0 1 0 11.566 28.6l27.453-11.1 5.136 12.7-27.455 11.1a29 29 0 0 1-20.157.605"/><path fill="#e0e0e0" d="m373.373 282.42 4.945 12.773 11.615-4.5-5.011-12.943Zm16.363 41.436 5.083 12.791 11.747-4.824-5.136-12.7Z"/></g><g clip-path="url(#c)"><g clip-path="url(#d)" opacity=".3"><path fill="#fff" d="m365.346 285.331-1.936 59.311s4.49 1.085 7.8.222l.963-61.957Z"/></g><g clip-path="url(#f)" opacity=".3"><path fill="#fff" d="m362.31 286.894-2.02 57.05-4.247-1.893 3.072-53.921Z"/></g></g><g clip-path="url(#a)"><path fill="#eeb45b" d="m396.259 314.308 12.945-9.839a.21.21 0 0 1 .329.117l.877 3.627a.21.21 0 0 0 .242.155l10.064-1.965a.208.208 0 0 1 .15.381L407.418 315a.206.206 0 0 1-.306-.115l-.917-2.929a.207.207 0 0 0-.259-.137l-9.492 2.85a.208.208 0 0 1-.185-.365m4.015-14.971 18.469-14.033a.3.3 0 0 1 .468.167l1.253 5.174a.3.3 0 0 0 .345.221l14.358-2.8a.3.3 0 0 1 .211.544l-19.178 11.72a.3.3 0 0 1-.438-.165l-1.307-4.178a.3.3 0 0 0-.369-.2l-13.542 4.066a.3.3 0 0 1-.265-.52"/><path fill="#eaf4f2" d="M393.2 35.974a6.9 6.9 0 1 1-4.937-8.414 6.9 6.9 0 0 1 4.937 8.414"/><path fill="#eaf4f2" d="M371.436 47.577s3.63-10.886 13.651-8.276c10.432 2.717 8.108 13.943 8.108 13.943Z"/><path fill="#bed3cf" d="m19.3 195.619 10.533 48.733a5.88 5.88 0 0 0 5.639 4.77l71.87.165c2.585.006 6.928-4.724 6.314-7.384L100.1 195.94a3.98 3.98 0 0 0-3.824-3.177l-72.532-3.044c-4.462 0-4.753 4.459-4.442 5.9"/><path fill="#eaf4f2" d="m21.626 192.538 10.533 48.733a5.88 5.88 0 0 0 5.639 4.77l71.87.165a4.173 4.173 0 0 0 3.879-5.225l-11.123-48.122a3.98 3.98 0 0 0-3.824-3.177l-74.855.037a2.276 2.276 0 0 0-2.119 2.819"/><path fill="#2e4e5f" d="m23.148 199.577-1.478-7.01a2.28 2.28 0 0 1 2.113-2.848l74.791-.037a3.99 3.99 0 0 1 3.832 3.211l1.415 6.007Z"/><path fill="#fd625f" d="M32.127 194.679a2.106 2.106 0 1 1-2.106-2.106 2.106 2.106 0 0 1 2.106 2.106"/><path fill="#eeb45b" d="M37.654 194.679a2.106 2.106 0 1 1-2.106-2.106 2.106 2.106 0 0 1 2.106 2.106"/><path fill="#b1ca93" d="M43.182 194.679a2.106 2.106 0 1 1-2.106-2.106 2.106 2.106 0 0 1 2.106 2.106"/><path fill="#2e4e5f" d="M63.188 210.484c0 .144-6.659.26-14.872.26s-14.874-.116-14.874-.26 6.658-.26 14.874-.26 14.872.116 14.872.26m4.39 14.754c0 .144-6.659.26-14.872.26s-14.874-.116-14.874-.26 6.658-.26 14.874-.26 14.872.116 14.872.26m2.54 8.062c0 .144-6.66.26-14.873.26s-14.874-.116-14.874-.26 6.658-.26 14.874-.26 14.873.116 14.873.26m-4.823-15.356c0 .144-6.659.26-14.872.26s-14.874-.116-14.874-.26 6.658-.26 14.874-.26 14.872.116 14.872.26"/><path fill="#73ac9d" d="M98.646 236.367h-15.6a7.8 7.8 0 0 1-5.032-1.972 8.35 8.35 0 0 1-2.8-4.756l-2.772-14.934a5.86 5.86 0 0 1 1.159-4.916 5.69 5.69 0 0 1 4.478-1.993h15.974a7.86 7.86 0 0 1 5.093 1.972 8.03 8.03 0 0 1 2.738 4.767l2.407 14.934a6.02 6.02 0 0 1-1.267 4.954 5.63 5.63 0 0 1-4.378 1.944M78.075 208.8a4.7 4.7 0 0 0-3.709 1.633 4.88 4.88 0 0 0-.945 4.094l2.772 14.934a7.36 7.36 0 0 0 6.851 5.91h15.6a4.65 4.65 0 0 0 3.616-1.593 5.04 5.04 0 0 0 1.041-4.146l-2.401-14.938a7.21 7.21 0 0 0-6.843-5.9Z"/><path fill="#73ac9d" d="M102.409 219.6a12.43 12.43 0 0 0-8.354-2.128c-2.576.364-3.8 1.694-4.92 4.136-.662 1.445-1.293 4.94-2.806 5.47-1.261.442-3.491-1.659-5.147-2.194-2.371-.766-4.677.672-5.819 2.524l.732 3.943a5.62 5.62 0 0 0 5.243 4.513h19.014a3.71 3.71 0 0 0 3.661-4.614Zm-18.515-3.929a2.84 2.84 0 0 1-2.849 3.5 4.37 4.37 0 0 1-4.1-3.5 2.83 2.83 0 0 1 2.849-3.5 4.35 4.35 0 0 1 4.1 3.5"/><path fill="#fd625f" d="m31.613 267.56 12.919 46.7h15.042l2.639-1.767-16.445-46.45-11.516-.255Zm22.744 14.111 9.47 32.749h13.692l3.935-2.222L67.3 281.376l-10.412-2.222Z"/><path fill="#fd625f" d="m76.067 297.186 5.354 17.552h15.043L99.6 312.5l-7.241-15.311-13.159-2.244Z"/><g clip-path="url(#g)" opacity=".3"><path d="m31.613 267.56 12.919 46.7h15.042l2.639-1.767-16.445-46.45-11.516-.255Z"/></g><g clip-path="url(#h)" opacity=".3"><path d="m54.357 281.671 9.47 32.749h13.692l3.935-2.222L67.3 281.376l-10.412-2.222Z"/></g><g clip-path="url(#i)" opacity=".3"><path d="m76.067 297.186 5.354 17.552h15.043L99.6 312.5l-7.241-15.311-13.159-2.244Z"/></g><path fill="#fd625f" d="M34.252 265.793 47.17 312.5h15.043L48.6 265.793Zm22.632 13.362 9.527 33.045h15.043l-10.223-33.045ZM79.2 294.944l5.359 17.556H99.6l-4.1-17.552Z"/><path fill="#eeb45b" d="m38.289 124.663 9.879 34.214 52.262-1.161 1.653-1.854-10.844-31.729-51.3-1.325Z"/><g clip-path="url(#k)" opacity=".3"><path d="m38.289 124.663 9.879 34.214 52.262-1.161 1.653-1.854-10.844-31.729-51.3-1.325Z"/></g><path fill="#eeb45b" d="m39.942 122.809 9.879 34.214 52.262-1.161-9.191-33.583Z"/><path d="M92.892 122.279a2.8 2.8 0 0 1-.339.477l-1.047 1.313-3.955 4.821-13.5 16.184-.146.175-.191-.125-4.566-2.972-20.713-13.588-6.243-4.164-1.683-1.156a3.6 3.6 0 0 1-.567-.432 3.6 3.6 0 0 1 .625.345l1.736 1.073 6.333 4.029 20.792 13.46 4.563 2.977-.337.05c5.4-6.37 10.174-11.99 13.637-16.071l4.074-4.721 1.115-1.257a2.8 2.8 0 0 1 .412-.415"/><path d="M63.084 137.891c.118.082-2.755 4.431-6.417 9.714s-6.728 9.5-6.846 9.418 2.755-4.431 6.418-9.715 6.727-9.5 6.845-9.417m18.542-2.223c.1-.1 4.763 4.336 10.411 9.911s10.148 10.181 10.047 10.283-4.762-4.334-10.412-9.912-10.147-10.18-10.046-10.282"/><path fill="#fd625f" d="M320.6 48.887A48.887 48.887 0 1 1 271.709 0 48.887 48.887 0 0 1 320.6 48.887"/><g clip-path="url(#l)" opacity=".3"><path d="M320.6 48.887A48.887 48.887 0 1 1 271.709 0 48.887 48.887 0 0 1 320.6 48.887"/></g><path fill="#fd625f" d="M327.216 48.887A48.887 48.887 0 1 1 278.329 0a48.887 48.887 0 0 1 48.887 48.887"/><path fill="#fff" d="M313.849 48.887a35.519 35.519 0 1 1-35.519-35.519 35.52 35.52 0 0 1 35.519 35.519"/><path fill="#fd625f" d="M301.35 48.887a23.02 23.02 0 1 1-23.02-23.02 23.02 23.02 0 0 1 23.02 23.02"/><path fill="#fff" d="M288.863 48.887a10.533 10.533 0 1 1-10.533-10.533 10.533 10.533 0 0 1 10.533 10.533"/><path fill="#2e4e5f" d="M278.33 49.887a1 1 0 0 1-.845-.463 1 1 0 0 1 .307-1.38l62.078-39.48a1 1 0 0 1 1.38.307 1 1 0 0 1-.307 1.38l-62.076 39.48a1 1 0 0 1-.537.156"/><path fill="#2e4e5f" d="m326.352 18.975.864-10.758 9.478-7.383-.457 11.952Z"/><path fill="#2e4e5f" d="M347.027 15.251 336.7 12.125l-10.338 6.125 11.292 3.942ZM71.479 89.957l85.614 304.369c4.387 15.671 18.194 23.79 34.437 22.8l140.625-7.637a17.244 17.244 0 0 0 15.485-22.03l-91.486-314.25a17.24 17.24 0 0 0-16.966-12.419l-148.5 3.53c-11.153.265-22.088 14.853-19.209 25.637"/><path fill="#fff" d="M344.961 402.5s-.453.045-1.339.108l-3.933.265-15.128.969-55.642 3.466-38.426 2.368-21.407 1.315-11.195.686a61 61 0 0 1-11.545-.058 35 35 0 0 1-11.372-3.281 18.1 18.1 0 0 1-5.009-3.407 25 25 0 0 1-3.813-4.79 49 49 0 0 1-4.969-11.332c-1.186-4-2.242-8.048-3.385-12.127l-13.925-50.536L95.1 148.772 80.372 95l-3.977-14.625-1.022-3.807c-.233-.867-.331-1.3-.331-1.3s.138.434.382 1.288.6 2.132 1.072 3.793l4.072 14.6 14.883 53.723 48.923 177.332 13.915 50.538c1.14 4.074 2.2 8.145 3.375 12.116a48.6 48.6 0 0 0 4.91 11.217 19.9 19.9 0 0 0 8.614 8.021 34.5 34.5 0 0 0 11.214 3.245 61 61 0 0 0 11.465.066l11.195-.675 21.408-1.289 38.428-2.3 55.651-3.3 15.133-.872 3.937-.213a53 53 0 0 1 1.342-.055M194.4 73.137l-53.119 1.557a1.807 1.807 0 1 1-.106-3.613l53.125-1.558a1.808 1.808 0 1 1 .106 3.614"/><path fill="#eaf4f2" d="m241.231 79.864-144.389 1.9a3.97 3.97 0 0 0-3.769 5.039L172 370.116a16.18 16.18 0 0 0 16.192 11.827l135.843-5.085a9.89 9.89 0 0 0 9.14-12.6L254.9 90.022a14.03 14.03 0 0 0-13.672-10.158"/><g clip-path="url(#m)" opacity=".5"><path fill="#fff" d="M166.156 80.848 110.9 149.762l5 18.156 67.222-87.2Z"/></g><g clip-path="url(#n)" opacity=".5"><path fill="#fff" d="m157.248 80.972-49.359 59.014-1.7-6.1 46.142-52.85Z"/></g><g clip-path="url(#o)" opacity=".3"><path d="M255.737 413.636V303.972l-56.013 10.042-.593-25.625 75.212-5.918-5.114 130.436Z"/></g><path fill="#511f39" d="M270.377 141.486a15.95 15.95 0 0 1-7.462-7.9A24.6 24.6 0 0 0 277 136.6l.558-5.745c-5.754-1.588-11.619-3.226-16.583-6.542s-11.658-8.911-12.829-14.764c-.873-4.366 3.587-6.25 6.085-13.147 2.106-5.818 1.12-11.219-2.286-16.682a43.4 43.4 0 0 0-5.884-7.257c-4.145-4.269-10.413-6.513-16.273-4.979-6.045-5.867-22.733-3.886-29.671-.643S190.1 70.882 185.7 77.145c-7.425 10.549-14.194 28.441-12.587 41.24s9.494 25.011 21.234 30.357c5.9 2.687 12.425 3.6 18.825 4.629s12.918 2.273 18.533 5.513 10.245 8.88 10.592 15.353a66.46 66.46 0 0 0 33.676-30.84s-.973.507-5.591-1.911"/><path fill="#f5b08b" d="m189.449 136.416 5.086-29.4 6.878-24.076 26.731-12.188 3.552 1.665c8.213 3.849 15.27 11.56 13.216 21.24v.15s-4.507 22.833-8.717 29.881c-5.25 8.789-12.124 7.5-14.727 10.882a15.5 15.5 0 0 0-2.5 7.232 10.49 10.49 0 0 1-8.55 9.043c-6.01 1.051-14.221-.827-20.963-14.428"/><path fill="#511f39" d="M241.78 91.323a1.98 1.98 0 0 0-.974-.9 5 5 0 0 0-1.263-.423c-.041-.01-.081-.013-.122-.022a5 5 0 0 0-.672-.089 4.6 4.6 0 0 0-.8.016q-.042-.001-.085.005a5 5 0 0 0-.886.191c-.033.009-.066.01-.1.021h.014c-.048.015-.1.02-.143.036a2.76 2.76 0 0 0-1.389.949 1.54 1.54 0 0 0-.12 1.688 1.63 1.63 0 0 0 .9.514l1.429.444a6.6 6.6 0 0 0 1.893.39 2.53 2.53 0 0 0 1.841-.711 2.04 2.04 0 0 0 .484-2.11m-17.753-2.706a1.98 1.98 0 0 0-.974-.9 5 5 0 0 0-1.263-.418c-.041-.01-.081-.013-.122-.022a5 5 0 0 0-.672-.089 4.6 4.6 0 0 0-.805.016q-.042-.001-.085.005a5 5 0 0 0-.886.191c-.033.009-.066.01-.1.021h.013c-.047.015-.094.019-.142.036a2.76 2.76 0 0 0-1.389.949 1.54 1.54 0 0 0-.12 1.688 1.63 1.63 0 0 0 .9.514l1.429.444a6.6 6.6 0 0 0 1.893.39 2.53 2.53 0 0 0 1.841-.711 2.04 2.04 0 0 0 .484-2.11"/><path d="M216.859 97.513c.221-.779.257-1.735.908-2.306l.166-.07a2.02 2.02 0 0 1 1.734.275 1.88 1.88 0 0 1 .507 1.544 6.7 6.7 0 0 1-.693 2.216 4.6 4.6 0 0 1-.6 1.074 1.251 1.251 0 0 1-2.3-.731 4.7 4.7 0 0 1 .278-2m16.67 4.335c.221-.779.256-1.735.909-2.306l.165-.07a2.02 2.02 0 0 1 1.734.275 1.87 1.87 0 0 1 .507 1.544 6.7 6.7 0 0 1-.693 2.215 4.6 4.6 0 0 1-.6 1.075 1.251 1.251 0 0 1-2.3-.731 4.7 4.7 0 0 1 .278-2"/><path fill="#f07b54" d="m227.267 131.4-3.249 1.571a7.44 7.44 0 0 0-3.634 3.429l-.025.048c-6.2-2.492-10.949-4.728-14.526-10.372 7.173 4.166 12.177 6.2 21.434 5.324"/><path d="M223.309 109.7a16 16 0 0 0 2.4-.879 7.6 7.6 0 0 0 2.144-1.673 7 7 0 0 0 .927-1.3c.13-.233.293-.555.231-.577 0-.063-.287-.135-.587-.115l-3.6-.046h-.285l.052-.275a36 36 0 0 1 1.139-5.133 36 36 0 0 1-.671 5.215l-.232-.279h3.6a2.4 2.4 0 0 1 .505.035.74.74 0 0 1 .546.377.75.75 0 0 1-.039.644l-.214.4a7.3 7.3 0 0 1-1.019 1.38 7.4 7.4 0 0 1-2.336 1.68 6.5 6.5 0 0 1-1.853.543 1.56 1.56 0 0 1-.707 0"/><path fill="#511f39" d="M185.047 78.11c-8.718 13.591-3.328 23.054 8.438 34.112l5.039-13.822c15.231-4.938 26.311-17.047 32.2-30.9-17.883-11.494-36.956-2.983-45.674 10.608"/><path fill="#f5b08b" d="M199.276 114.189a13.48 13.48 0 0 1-8.351-4.93 10.1 10.1 0 0 1-1.447-8.165 8.99 8.99 0 0 1 5.809-6.666 6.71 6.71 0 0 1 7.873 3.191"/><path fill="#f07b54" d="M196.59 98.709a2.1 2.1 0 0 0-2.068.309 4.6 4.6 0 0 0-1.313 1.731 7.46 7.46 0 0 0-.693 5.416 4.314 4.314 0 0 0 4.126 3.142 1.17 1.17 0 0 0 .948-.437c.265-.421.02-.961-.16-1.425a5.14 5.14 0 0 1-.178-3.146 2.43 2.43 0 0 1 .625-1.176 1.2 1.2 0 0 1 1.244-.285c.281.119.545.381.838.3.432-.122.342-.764.125-1.156a8.05 8.05 0 0 0-3.5-3.321"/><path d="M198.478 108.832c0 .025-.332-.014-.748-.4a3 3 0 0 1-.856-2.137 7.7 7.7 0 0 1 .117-1.593 3.4 3.4 0 0 1 .767-1.729 1.8 1.8 0 0 1 2.091-.387 3.1 3.1 0 0 1 1.525 1.658c.16.349.283.7.4 1.023l-.5.128a9.2 9.2 0 0 0-3.247-5.518 21 21 0 0 0-2.266-1.462 1.9 1.9 0 0 1 .712.195 7.8 7.8 0 0 1 1.769.991 9.1 9.1 0 0 1 3.543 5.71l-.5.128c-.115-.322-.234-.658-.381-.977a2.64 2.64 0 0 0-1.259-1.409 1.3 1.3 0 0 0-1.538.253 3.06 3.06 0 0 0-.69 1.481 8 8 0 0 0-.172 1.5 2.96 2.96 0 0 0 .634 2c.334.388.622.494.6.535"/><path fill="#f07b54" d="M218.727 110.6a2.12 2.12 0 0 0-1.731-.395 1.7 1.7 0 0 0-.9 1.344 4.216 4.216 0 0 0 3.836 5l.057-.013a4.55 4.55 0 0 0 3.416-3.276l-4.673-2.658"/><path d="M219.927 116.547a3.1 3.1 0 0 1-2.28-.652 4.22 4.22 0 0 1-1.615-2.079 3.97 3.97 0 0 1 .154-3.241 1.5 1.5 0 0 1 .746-.622 1.56 1.56 0 0 1 .934-.014 6.2 6.2 0 0 1 1.4.693l2.184 1.307a10.5 10.5 0 0 1 1.947 1.319 10.6 10.6 0 0 1-2.129-1l-2.24-1.21a6.2 6.2 0 0 0-1.293-.616.93.93 0 0 0-1.113.422 3.64 3.64 0 0 0-.14 2.8 4.05 4.05 0 0 0 1.377 1.939 6.8 6.8 0 0 0 2.065.95"/><g clip-path="url(#p)" opacity=".56"><path fill="#f07b54" d="M215.971 106.442c-1 1.726-3.988 1.864-6.683.308s-4.07-4.215-3.074-5.941 3.988-1.864 6.683-.308 4.07 4.215 3.074 5.941"/></g><g clip-path="url(#q)" opacity=".56"><path fill="#f07b54" d="M237.571 108.715c-3.024-.733-5.855.243-6.325 2.179s1.6 4.1 4.625 4.834a7.84 7.84 0 0 0 3.51.083l1.6-5.417a12.3 12.3 0 0 0-3.407-1.679"/></g><path fill="#b1ca93" d="m271.308 178.024-4.167 9.606-21.252-29.386a42 42 0 0 0-15.542-10.825l-11.547-4.855c-10.384 6.329-20.433 4-29.473-6.093l-18.953-1.3-1.881-.129a17.9 17.9 0 0 0-8.208 2.122 24.3 24.3 0 0 0-9.66 9.231c-3.258 5.431-22.851 40.014-27.563 48.547l8.571 30.347c5.138.274 11.855-1.387 15.461-8.031l11.671-29.543-5.294 38.881 57.4 13.271 13.2-23.8s6.588-8.937 8.134-14.81a37 37 0 0 0 1.464-9.941c4.176 4.987 14.323 17.455 23.233 25.957 4.873 4.65 15.414 11.384 22.519 3.413 8.013-8.989 12.781-27.851 12.781-27.851Z"/><path d="M163.55 154.507a4 4 0 0 1-.065.723l-.285 2.055-1.029 7.561c-.847 6.44-2 15.241-3.283 24.964-1.279 9.752-2.459 18.578-3.368 24.959-.454 3.191-.844 5.77-1.132 7.55l-.356 2.045a3.7 3.7 0 0 1-.16.707 4 4 0 0 1 .057-.723l.259-2.058.967-7.57 3.217-24.978c1.28-9.749 2.486-18.571 3.434-24.947.476-3.188.889-5.764 1.194-7.541l.382-2.042a4 4 0 0 1 .168-.705"/><path fill="#2e4e5f" d="M271.175 202.908a12 12 0 0 1-.535-2.3c-.282-1.424-.684-3.387-1.2-5.538s-1.049-4.083-1.443-5.481a12 12 0 0 1-.565-2.289 9.5 9.5 0 0 1 .916 2.178A58 58 0 0 1 271 200.55a9.5 9.5 0 0 1 .172 2.358"/><path d="m236.614 176.794-3.38-7.621a76.8 76.8 0 0 1 .636 22.149l5.3 5.763s.785-12-2.553-20.291"/><path fill="#b1ca93" d="M351.221 109.871a10.124 10.124 0 1 1-7.309-12.311 10.124 10.124 0 0 1 7.309 12.311"/><path fill="#f5b08b" d="M307.056 137.029c-.513-2.335-2.861-2.277-4.3-1.909-.534.136-6.883 1.878-11.87 3.305.086-.629 1.044-7.943-.33-9.871-1.436-2.015-3.068-.886-3.158 2.262s-2 5.61-3.322 8.842.358 12.993.358 12.994l-.257 2.148-10.307 24.732 15.7 12.478 9.383-32.273s8.42-4.476 9.231-6.633a2.6 2.6 0 0 0-.843-3.205 2.44 2.44 0 0 0 1.807-2.112 2.4 2.4 0 0 0-1.018-2.556 3.68 3.68 0 0 0 .837-2.593c-.185-1.823-2.472-2.606-2.472-2.606s1.038-.819.558-3"/><path fill="#2e4e5f" d="m300.316 125.072-4.366-19.924-11.068 3.275c-4.166.985-6.471 6.768-5.535 10.946a7.817 7.817 0 0 0 9.489 5.884l.746-.088 5.067 30.621a3.27 3.27 0 0 0 4 2.65c3.754-.909 9.51-1.977 9.51-1.977.338.329-7.4-29.693-7.841-31.387"/><path fill="#f07b54" d="M291.478 156.32a11.93 11.93 0 0 0 .779-9.112 19 19 0 0 0-.937-3.24 16.7 16.7 0 0 0-1.312-2.48l-.052-.085.031-.089c.317-.9.431-1.727.6-2.264s.3-.83.334-.816a4.4 4.4 0 0 1-.121.862 17 17 0 0 1-.441 2.349l-.021-.173a14.6 14.6 0 0 1 1.434 2.507 17.3 17.3 0 0 1 1 3.317 12.83 12.83 0 0 1 .043 6.754 7 7 0 0 1-.839 1.892c-.267.411-.471.6-.492.578"/><path fill="#f5b08b" d="M306.5 140.033s-5.682 1.554-8.972 2.569a8.2 8.2 0 0 1-2.6.553 2.48 2.48 0 0 1-2.084-1.689c-.466-1.594.974-3.5 2.7-3.992l9.074-2.527"/><path fill="#f5b08b" d="M308.322 145.179s-5.682 1.554-8.972 2.569a8.1 8.1 0 0 1-2.6.553 2.48 2.48 0 0 1-2.084-1.689c-.466-1.594.974-3.5 2.7-3.992l9.074-2.527m1.395 13.631c-.938.647-2.7 1.012-5.278 1.725a8.8 8.8 0 0 1-2.344.356 1.86 1.86 0 0 1-1.793-.995 1.95 1.95 0 0 1 1.5-2.4l8.072-2.352s2.07 2.134-.157 3.669"/><path fill="#f5b08b" d="M307.939 149.791c-1.166.8-3.359 1.258-6.559 2.143a11 11 0 0 1-2.912.443 2.31 2.31 0 0 1-2.229-1.236 2.423 2.423 0 0 1 1.864-2.986l10.031-2.923s2.572 2.652-.2 4.559"/><path fill="#f07b54" d="M306.7 139.986a51 51 0 0 1-9.884 2.856 51 51 0 0 1 9.884-2.856m1.506 5.214a58 58 0 0 1-10.586 2.919 58 58 0 0 1 10.586-2.919m-.485 4.573a32.3 32.3 0 0 1-7.805 2.474 32.3 32.3 0 0 1 7.805-2.474"/><path fill="#73ac9d" d="M335.685 83.847c-11.663 15.618-39.735 21.3-39.735 21.3l4.013 18.312c18.637-3.085 47.526 8.105 47.526 8.105Z"/><path fill="#2e4e5f" d="M347.5 134.3a2.754 2.754 0 0 1-3.294-2.079l-10.965-48.49a2.754 2.754 0 0 1 5.373-1.215l10.965 48.49a2.755 2.755 0 0 1-2.079 3.294"/><path fill="#fff" d="M269.483 395.87v-21.007h32.535l-1.349 30.75-21.516 8.176-9.67-11.6Z"/><path fill="#fd625f" d="M263.037 438.522c-.2-13.286 1.64-21.63 1.436-34.916-.037-2.418.132-5.254 2.137-6.6 1.812-1.219 4.343-.57 6.093.735s3.01 3.154 4.605 4.645a14.548 14.548 0 0 0 24.21-7.833l45.375 27.3c3.1 1.864 6.3 3.823 8.311 6.827s2.474 7.372.072 10.075Z"/><path fill="#2e4e5f" d="m356.915 431.941-93.8-.574-.082 7.155 92.239.227s3.351-3.541 1.639-6.808"/><path fill="#fff" d="M310.176 408.819a1.322 1.322 0 1 1-1.322-1.322 1.32 1.32 0 0 1 1.322 1.322m7.337 4.175a1.322 1.322 0 1 1-1.322-1.322 1.32 1.32 0 0 1 1.322 1.322m7.611 4.129a1.322 1.322 0 1 1-1.324-1.323 1.32 1.32 0 0 1 1.322 1.322"/><path fill="#fff" d="M323.8 417.392a6.96 6.96 0 0 1 4.825-6.227 11.4 11.4 0 0 0-4.825 6.227m-7.278-4.619a6.96 6.96 0 0 1 4.825-6.227 11.4 11.4 0 0 0-4.825 6.227m-7.237-4.046a6.96 6.96 0 0 1 4.825-6.227 11.4 11.4 0 0 0-4.825 6.227"/><path d="m269.483 386.688 32 .323-.25 5.7-31.752-2.853Z"/><path fill="#2e4e5f" d="M356.915 431.966c-15.759 0-31.462-.129-46.647-.253s-30.889-.253-46.649-.253v-.05c15.76 0 31.463.129 46.649.253s30.888.253 46.647.253Z"/></g><g clip-path="url(#r)"><path fill="#73ac9d" d="M291.54 232.092c-13.319-4.684-56.292-.072-86.192 3.937l-.5-8.385-31.794 12.311-10.313 69.1 101.064-19.19-2.323 96.759 46.271.39s5.968-97.85 7.682-113.124-3.236-34.528-23.9-41.795"/></g><g clip-path="url(#a)"><path fill="#73ac9d" d="M172.649 168.236s-16.192 57.494-15.849 57.582l-2.929-.747s-16.233 10.339-18.784 12.551c0 0 2.586 10.122 6.432 24.148 2.271 8.283 5.354 17 8.024 27.745l15.664 56.227 6.6 23.692a22 22 0 0 0 3.1 6.3c3.847 4.694 9.629 9.042 14.536 1.133 8.174-13.167 16.39-118.767 16.39-118.767l6.249-7.9c8.566-21.431 17.284-51.013 17.569-67.433Z"/><path fill="#73ac9d" d="m171.936 171.561 1.144-36.5 6.278.432-.413 36.235Zm50.435 12.061 4.1-38.646 6.223 3.184-4.557 36.933Z"/><path fill="#fff" d="M178.637 176.315a2.532 2.532 0 1 1-1.828-3.079 2.53 2.53 0 0 1 1.828 3.079"/><path fill="#73ac9d" d="M175.775 175.465a.386.386 0 1 1-.275-.465.387.387 0 0 1 .278.469m1.359.631a.386.386 0 1 1-.28-.469.387.387 0 0 1 .28.469"/><path fill="#fff" d="M224.515 188.009a2.531 2.531 0 1 1-1.828-3.079 2.53 2.53 0 0 1 1.828 3.079"/><path fill="#73ac9d" d="M221.652 187.16a.386.386 0 1 1-.279-.469.386.386 0 0 1 .279.469m1.362.635a.386.386 0 1 1-.279-.469.387.387 0 0 1 .279.469"/><path d="M209.952 249.295a4.4 4.4 0 0 1-.043.777c-.048.508-.117 1.257-.234 2.218-.225 1.923-.581 4.7-1.048 8.131-.932 6.859-2.3 16.323-3.868 26.765s-3.059 19.893-4.189 26.722a459 459 0 0 1-1.394 8.078c-.171.953-.327 1.689-.43 2.188a4.4 4.4 0 0 1-.188.755 4.4 4.4 0 0 1 .084-.774l.334-2.2c.3-1.968.717-4.722 1.23-8.1l4.038-26.741c1.573-10.42 2.983-19.849 4.019-26.74.505-3.382.916-6.137 1.211-8.1l.33-2.2a4.4 4.4 0 0 1 .148-.765m66.718 18.949c.063.052-.831 1.2-2.193 3.105a86 86 0 0 0-9.025 15.879c-.94 2.147-1.468 3.5-1.545 3.473a4 4 0 0 1 .26-.992c.2-.629.516-1.526.946-2.622a66 66 0 0 1 9.068-15.958 42 42 0 0 1 1.769-2.155 4 4 0 0 1 .72-.73"/><path d="M282.729 277.2c.081.119-4.088 3.121-9.311 6.706s-9.526 6.395-9.607 6.276 4.087-3.12 9.312-6.706 9.525-6.4 9.606-6.276M169.6 240.983a4.3 4.3 0 0 1-.709.81 11 11 0 0 1-.914.87c-.372.321-.781.708-1.285 1.071a26.6 26.6 0 0 1-3.648 2.382 28 28 0 0 1-10.14 3.2 26.6 26.6 0 0 1-4.356.141c-.62-.009-1.177-.091-1.667-.14a11 11 0 0 1-1.247-.189 4.2 4.2 0 0 1-1.045-.257c.016-.1 1.521.18 3.971.218a30 30 0 0 0 4.285-.25 29.9 29.9 0 0 0 9.974-3.144 30 30 0 0 0 3.653-2.253c1.985-1.436 3.059-2.527 3.128-2.456"/><path fill="#f5b08b" d="M126.388 170.512c-1.969-.675-5.463.759-8.2 3.367l-2.08 1.944a8.76 8.76 0 0 0-2.71 4.507c-.414 1.953 1.214 3.9 3.135 4.444a8.98 8.98 0 0 0 5.824-.759 13.44 13.44 0 0 0 4.746-3.781c1.381-1.558 2.659-3.3 2.493-5.374a4.69 4.69 0 0 0-3.2-4.348"/><path fill="#f5b08b" d="M129.649 179.519c-1.969-.675-5.463.759-8.2 3.367l-2.08 1.944a8.76 8.76 0 0 0-2.71 4.507c-.414 1.953 1.214 3.9 3.135 4.444a8.98 8.98 0 0 0 5.824-.759 13.45 13.45 0 0 0 4.746-3.781c1.381-1.558 2.659-3.3 2.493-5.374a4.69 4.69 0 0 0-3.2-4.348"/><path fill="#f5b08b" d="M133.238 187.945c-1.969-.675-5.463.759-8.2 3.367l-2.08 1.944a8.76 8.76 0 0 0-2.71 4.507c-.414 1.953 1.214 3.9 3.135 4.444a8.98 8.98 0 0 0 5.824-.759 13.44 13.44 0 0 0 4.746-3.781c1.381-1.558 2.659-3.3 2.493-5.374a4.69 4.69 0 0 0-3.2-4.348"/><path fill="#f07b54" d="M128.35 178.544a39 39 0 0 1-5.008 3.868 39 39 0 0 1-5.308 3.443 38.5 38.5 0 0 1 5.007-3.868 38.5 38.5 0 0 1 5.309-3.443m2.296 9.375a20.8 20.8 0 0 1-4.118 3.784 20.7 20.7 0 0 1-4.727 2.99 55 55 0 0 1 4.41-3.4 55 55 0 0 1 4.435-3.371"/><path fill="#bed3cf" d="m315.2 182.838 13.936 64.475a7.78 7.78 0 0 0 7.46 6.312l95.088.218c3.42.008 9.167-6.25 8.353-9.769L422.1 183.263a5.27 5.27 0 0 0-5.06-4.2l-95.963-4.026c-5.9 0-6.289 5.9-5.877 7.8"/><path fill="#eaf4f2" d="m318.275 178.762 13.936 64.476a7.776 7.776 0 0 0 7.46 6.311l95.088.218a5.52 5.52 0 0 0 5.133-6.912l-14.717-63.668a5.27 5.27 0 0 0-5.06-4.2l-99.036.05a3.012 3.012 0 0 0-2.8 3.729"/><path fill="#2e4e5f" d="m320.288 188.075-1.956-9.274a3.014 3.014 0 0 1 2.8-3.768l98.952-.05a5.274 5.274 0 0 1 5.07 4.248l1.872 7.948Z"/><path fill="#fd625f" d="M332.169 181.6a2.786 2.786 0 1 1-2.787-2.787 2.787 2.787 0 0 1 2.787 2.787"/><path fill="#eeb45b" d="M339.482 181.6a2.786 2.786 0 1 1-2.787-2.787 2.787 2.787 0 0 1 2.787 2.787"/><path fill="#b1ca93" d="M346.794 181.6a2.786 2.786 0 1 1-2.787-2.787 2.787 2.787 0 0 1 2.787 2.787"/><path fill="#2e4e5f" d="M373.264 202.505c0 .144-8.811.26-19.677.26s-19.679-.116-19.679-.26 8.809-.26 19.679-.26 19.677.116 19.677.26m5.808 19.52c0 .144-8.811.26-19.677.26s-19.679-.116-19.679-.26 8.809-.26 19.679-.26 19.677.116 19.677.26m3.36 10.668c0 .144-8.811.26-19.677.26s-19.679-.116-19.679-.26 8.809-.26 19.679-.26 19.677.116 19.677.26m-6.381-20.318c0 .144-8.811.26-19.677.26s-19.679-.116-19.679-.26 8.809-.26 19.679-.26 19.677.116 19.677.26"/><path fill="#73ac9d" d="M420.176 236.588h-20.642a10.14 10.14 0 0 1-6.553-2.57 10.9 10.9 0 0 1-3.654-6.2l-3.668-19.758a7.6 7.6 0 0 1 1.5-6.372 7.37 7.37 0 0 1 5.8-2.579H414.1a10.24 10.24 0 0 1 6.633 2.57 10.47 10.47 0 0 1 3.569 6.211l3.185 19.758a7.8 7.8 0 0 1-1.641 6.423 7.3 7.3 0 0 1-5.67 2.517M392.96 200.11a6.39 6.39 0 0 0-5.032 2.218 6.62 6.62 0 0 0-1.285 5.55l3.668 19.758a9.9 9.9 0 0 0 9.223 7.951h20.642a6.31 6.31 0 0 0 4.907-2.165 6.82 6.82 0 0 0 1.415-5.616l-3.185-19.758a9.7 9.7 0 0 0-9.214-7.94Z"/><path fill="#73ac9d" d="M425.155 214.57a16.45 16.45 0 0 0-11.052-2.815c-3.409.48-5.025 2.241-6.51 5.472-.876 1.912-1.711 6.535-3.712 7.236-1.669.585-4.62-2.195-6.811-2.9-3.136-1.012-6.187.889-7.7 3.341l.968 5.216a7.435 7.435 0 0 0 6.937 5.97h25.157a4.91 4.91 0 0 0 4.843-6.1Zm-24.496-5.201A3.76 3.76 0 0 1 396.89 214a5.78 5.78 0 0 1-5.429-4.628 3.746 3.746 0 0 1 3.769-4.628 5.75 5.75 0 0 1 5.429 4.628"/><path d="M150 65.076c-.059.067-.526-.419-1.4-.954a2.9 2.9 0 0 0-1.664-.427 1.51 1.51 0 0 0-1.4 1.188l-.517-.03c0-.168-.007-.347-.009-.527a40 40 0 0 1 .162-6.447 40 40 0 0 1 .358 6.439c0 .18.006.359.008.527l-.517-.03a1.96 1.96 0 0 1 1.884-1.586 3.1 3.1 0 0 1 1.886.594A3.56 3.56 0 0 1 150 65.076"/><path d="M148.128 67.743c-.074.01-.164-.254-.3-.661a4.4 4.4 0 0 0-.708-1.424 2.07 2.07 0 0 0-1.292-.717c-.388-.048-.642.056-.681-.015-.038-.046.18-.3.682-.353a2.04 2.04 0 0 1 1.691.752 3.2 3.2 0 0 1 .67 1.675c.047.452.006.73-.062.739m11.722-4.026c-.058.067-.525-.419-1.4-.954a2.9 2.9 0 0 0-1.664-.427 1.51 1.51 0 0 0-1.4 1.188l-.517-.03c0-.168-.006-.347-.009-.527a40 40 0 0 1 .162-6.446 40 40 0 0 1 .359 6.438c0 .18.005.359.007.527l-.517-.03a1.96 1.96 0 0 1 1.885-1.586 3.1 3.1 0 0 1 1.886.594 3.55 3.55 0 0 1 1.212 1.253"/><path d="M157.98 66.38c-.074.01-.164-.254-.3-.661a4.4 4.4 0 0 0-.708-1.424 2.07 2.07 0 0 0-1.292-.717c-.388-.049-.642.056-.681-.015-.038-.046.18-.3.682-.353a2.04 2.04 0 0 1 1.691.752 3.2 3.2 0 0 1 .667 1.679c.047.452.006.73-.062.739"/><path fill="#eeb45b" d="M163.483 30.7c.216-.105 2.795-1.99 2.795-1.99s-3.727-.794-4.041-.833A11.5 11.5 0 0 0 164.275 24l-4.47 1.593c-1.992-3.043-5.9-3.956-9.483-3.322-2.985.529-6.5 3.837-7.766 6.576-.417.9-2.718 5.891-2.814 6.876l2.013 4.3-17.393 6.781c5.33 5.554 10.855 7.654 13.368 8.975 4.089 2.149 9.735 2.933 11.9 2.667 4.7-.581 10.086-2.813 13.172-7.256 2.589-3.727 3.044-7.1 3.1-12.326.026-2.545-1.023-6.535-2.412-8.168"/><path fill="#eeb45b" d="m144.565 34.4-24.2 1.924a2.9 2.9 0 0 0-1.693.5c-.782.666-.635 1.9-.322 2.883a15.93 15.93 0 0 0 13.68 10.759c6.141.442 17.2-2.127 19.5-12.038"/><path fill="#fff" d="M151.528 38.428a4 4 0 0 1-.16.72 10.2 10.2 0 0 1-.682 2.006 14 14 0 0 1-4.962 5.934 22 22 0 0 1-10.91 3.611 16.1 16.1 0 0 1-6.795-.843 16.4 16.4 0 0 1-6.186-3.973 17 17 0 0 1-2.3-2.969 16 16 0 0 1-1.484-3.342 4.14 4.14 0 0 1-.147-1.85 1.85 1.85 0 0 1 1.224-1.431 7 7 0 0 1 1.726-.251l1.64-.126 11.484-.857 7.746-.533 2.108-.118a4 4 0 0 1 .738-.006 4 4 0 0 1-.73.11l-2.1.216-7.732.7-11.476.969-1.639.135a6.8 6.8 0 0 0-1.6.23 1.34 1.34 0 0 0-.9 1.062 3.7 3.7 0 0 0 .143 1.613 15.6 15.6 0 0 0 1.438 3.214 16.6 16.6 0 0 0 2.229 2.872 16 16 0 0 0 5.987 3.857 15.7 15.7 0 0 0 6.592.845 21.9 21.9 0 0 0 10.732-3.437 14.15 14.15 0 0 0 4.988-5.716 12 12 0 0 0 .766-1.951 4 4 0 0 1 .261-.691"/><path d="M155.945 30.569a1.375 1.375 0 1 1 1.722-.9 1.375 1.375 0 0 1-1.722.9"/><path fill="#f07b54" d="m159.8 25.6 3.678 5.1 2.8-1.99-4.042-.833L164.275 24Z"/><path d="M371.428 177.626a2.34 2.34 0 0 1 .468-1.257 2.38 2.38 0 0 1 1.183-.985 1.55 1.55 0 0 1 1.856.61l-.468.221c-.046-.12-.1-.247-.145-.375a23.3 23.3 0 0 1-1.519-4.683 23.4 23.4 0 0 1 2.005 4.5c.049.128.1.256.143.375l-.468.221a1.1 1.1 0 0 0-1.261-.42 2.2 2.2 0 0 0-1.039.747c-.473.614-.681 1.088-.755 1.05"/><path d="M373.511 178.982c-.068.018-.19-.163-.3-.5a2.36 2.36 0 0 1-.021-1.4 1.58 1.58 0 0 1 1.026-1.035c.387-.1.617.038.6.1-.01.078-.217.094-.461.245a1.6 1.6 0 0 0-.668.853c-.244.855-.006 1.716-.178 1.742m-11.192-.949a2.34 2.34 0 0 1 .468-1.257 2.37 2.37 0 0 1 1.183-.984 1.55 1.55 0 0 1 1.856.609l-.468.221c-.047-.12-.1-.247-.145-.375a23.3 23.3 0 0 1-1.519-4.683 23.5 23.5 0 0 1 2.005 4.5c.049.128.1.256.143.375l-.468.221a1.1 1.1 0 0 0-1.261-.42 2.2 2.2 0 0 0-1.039.747c-.473.614-.681 1.088-.755 1.05"/><path d="M364.4 179.394c-.068.017-.19-.164-.3-.5a2.36 2.36 0 0 1-.021-1.4 1.57 1.57 0 0 1 1.026-1.035c.387-.1.616.037.6.1-.01.078-.217.094-.461.245a1.6 1.6 0 0 0-.668.853c-.244.855-.006 1.716-.178 1.743"/><path fill="#eeb45b" d="M355.95 150.554c-.149-.1-1.86-1.842-1.86-1.842s2.9-.14 3.146-.13a8.8 8.8 0 0 1-1.058-3.166l3.169 1.749c1.875-2.046 4.931-2.252 7.55-1.334 2.182.766 4.417 3.688 5.038 5.907a43 43 0 0 1 1.272 5.524l-2.044 2.989 12.261 7.247a32.6 32.6 0 0 1-11.17 5.112 19.4 19.4 0 0 1-9.286.544c-3.47-1.016-7.249-3.359-9.026-7.085-1.49-3.125-1.418-5.719-.813-9.662a14.7 14.7 0 0 1 2.821-5.853"/><path fill="#eeb45b" d="m368.05 157.295 15.4-10.289a2.2 2.2 0 0 1 1.25-.5c.784.03 1.281.84 1.556 1.574a12.15 12.15 0 0 1-3.1 12.909c-3.468 3.168-11.306 6.86-17.366 2.011"/><path fill="#fff" d="M365.786 163a2.3 2.3 0 0 1 .49.28 9 9 0 0 0 1.385.795 10.8 10.8 0 0 0 5.673 1.042 16.7 16.7 0 0 0 8.021-3.02 11.95 11.95 0 0 0 3.529-3.608 12.16 12.16 0 0 0 1.751-5.115 11.5 11.5 0 0 0-.677-5.348c-.3-.785-.924-1.5-1.642-1.212a5.2 5.2 0 0 0-1.051.609l-1.046.694-7.336 4.835-4.971 3.222-1.366.854a2.3 2.3 0 0 1-.5.268 2.3 2.3 0 0 1 .438-.356l1.316-.94 4.878-3.36 7.274-4.927 1.042-.7a5.4 5.4 0 0 1 1.165-.673 1.47 1.47 0 0 1 1.467.289 3.2 3.2 0 0 1 .8 1.2 11.9 11.9 0 0 1 .723 5.6 12.6 12.6 0 0 1-1.836 5.329 12.3 12.3 0 0 1-3.689 3.733 16.8 16.8 0 0 1-8.269 2.993 10.65 10.65 0 0 1-5.791-1.23 7.6 7.6 0 0 1-1.353-.89 2.3 2.3 0 0 1-.429-.365"/><path d="M361.642 151.386a1.049 1.049 0 1 0-1.186-.892 1.05 1.05 0 0 0 1.186.892"/><path fill="#fff" d="M361.494 151.421a1.08 1.08 0 0 1-1.063-.924 1.073 1.073 0 0 1 .913-1.213 1.074 1.074 0 1 1 .149 2.137Zm0-2.1a1 1 0 0 0-.146.01 1.023 1.023 0 0 0-.871 1.157 1.03 1.03 0 0 0 1.013.881 1 1 0 0 0 .145-.01 1.024 1.024 0 0 0-.141-2.038"/><path fill="#f07b54" d="m359.442 147.218-3.492 3.336-1.86-1.842 3.146-.13-1.058-3.166Z"/><path fill="#eaf4f2" d="M388.945 92.319c4.475-5.281 10.669-6.7 17.584-7.042 5.269-.256 10.819.252 15.255 3.107 6.3 4.055 9.055 12.6 6.91 19.777a21.95 21.95 0 0 1-15.979 14.758h-.609a20.04 20.04 0 0 0 7.084 10.629 11.99 11.99 0 0 1-12.162-9.877c-7.423 1.329-15-2.052-19.745-7.911s-5.283-15.247 1.662-23.441"/><path fill="#eaf4f2" d="M409.771 99.019a4.25 4.25 0 0 0-3.2 3.623 4.36 4.36 0 0 0-3.013-3.538c-2.188-.843-4.824 1.324-5.019 3.958-.155 2.089.939 4.007 2.036 5.686 1.729 2.644 6.364 5.769 6.364 5.769-.368 0 3.9-3.125 5.628-5.769 1.1-1.679 2.192-3.6 2.037-5.686a4.3 4.3 0 0 0-4.828-4.043"/><path fill="#fd625f" d="M409.771 99.019a4.25 4.25 0 0 0-3.2 3.623 4.36 4.36 0 0 0-3.013-3.538c-2.188-.843-4.824 1.324-5.019 3.958-.155 2.089.939 4.007 2.036 5.686 1.729 2.644 6.364 5.769 6.364 5.769-.368 0 3.9-3.125 5.628-5.769 1.1-1.679 2.192-3.6 2.037-5.686a4.3 4.3 0 0 0-4.828-4.043"/><path fill="#eaf4f2" d="M199.685 24.74a6.571 6.571 0 1 1-7.263-5.8 6.57 6.57 0 0 1 7.263 5.8"/><path fill="#eaf4f2" d="M184.292 42.491s-.49-10.92 9.312-12.022c10.205-1.147 11.972 9.63 11.972 9.63Zm-63.413 301.4c-6.245-6.287-14.294-7.478-23.152-7.21-6.751.2-13.782 1.414-19.155 5.507-7.63 5.81-10.283 16.993-6.821 25.937a28.1 28.1 0 0 0 21.885 17.22l.776-.061a25.66 25.66 0 0 1-7.966 14.28 15.355 15.355 0 0 0 14.523-13.834c9.607.947 18.933-4.134 24.4-12.092s5.2-19.991-4.49-29.747"/><path fill="#fff" d="M103.41 360.878a7.145 7.145 0 1 0-7.655-.023c-7.195 2.348-7.8 11.3-7.8 11.3h23.293s-.457-8.9-7.838-11.276"/><path fill="#eaf4f2" d="M19.515 151.609c-3.035.518-5.295 3.624-5.558 6.285-.318-2.661-2.086-4.927-5.226-6.136-3.8-1.463-8.368 2.295-8.706 6.864-.268 3.623 1.629 6.949 3.532 9.861 3 4.587 11.037 10.007 11.037 10.007-.637 0 6.765-5.42 9.762-10.007 1.9-2.912 3.8-6.238 3.533-9.861a7.45 7.45 0 0 0-8.374-7.013"/></g></g><g transform="translate(-981 27)"><g filter="url(#s)" transform="translate(1486.05 4750.86)"><path fill="#68f1ff" d="M34 96.14a25 25 0 1 1-25 25 25 25 0 0 1 25-25"/></g><use href="#t"/></g><g transform="translate(-981 211)"><g filter="url(#u)" transform="translate(1486.05 4566.86)"><path fill="#68f1ff" d="M34 280.14a25 25 0 1 1-25 25 25 25 0 0 1 25-25"/></g><use href="#t"/></g><g transform="translate(-460 211)"><g filter="url(#v)" transform="translate(965.05 4566.86)"><path fill="#68f1ff" d="M555 280.14a25 25 0 1 1-25 25 25 25 0 0 1 25-25"/></g><use href="#t"/></g><g transform="translate(-460 27)"><g filter="url(#w)" transform="translate(965.05 4750.86)"><path fill="#68f1ff" d="M555 96.14a25 25 0 1 1-25 25 25 25 0 0 1 25-25"/></g><use href="#t"/></g></g></svg>